<?xml version="1.0" standalone="no"?><!DOCTYPE svg PUBLIC "-//W3C//DTD SVG 1.1//EN" "http://www.w3.org/Graphics/SVG/1.1/DTD/svg11.dtd"><svg t="1566978285493" class="icon" viewBox="0 0 1024 1024" version="1.1" xmlns="http://www.w3.org/2000/svg" p-id="6208" width="16" height="16" xmlns:xlink="http://www.w3.org/1999/xlink"><defs><style type="text/css"></style></defs><path d="M693.632 635.712c0 17.728 14.336 32.064 32.064 32.064h256.64a32.128 32.128 0 0 0 0-64.192h-256.64a32.128 32.128 0 0 0-32.128 32.128zM982.272 739.776H610.56a32.128 32.128 0 1 0 0 64.192h371.84a32.128 32.128 0 0 0 0-64.192zM982.272 876.608H482.56a32.128 32.128 0 1 0 0 64.192h499.84a32.128 32.128 0 0 0 0-64.192zM91.968 622.912l47.36 47.36 184.192 184.128 502.464-502.4c42.496-42.56 38.592-115.648-8.768-162.944l-67.52-67.584c-47.36-47.36-120.448-51.328-162.944-8.832L84.288 615.168 10.752 884.416a33.792 33.792 0 0 0 41.536 41.6l269.312-73.408-55.104-55.168-174.912 47.744 47.68-174.912-47.36-47.36zM640 165.952c16.128-16.128 43.904-14.592 61.824 3.328L769.408 236.8c17.92 18.048 19.456 45.76 3.264 61.888L695.68 375.68 562.944 243.072 640 165.952zM509.76 296.32l132.672 132.672L318.08 753.28 185.408 620.608l324.352-324.352z" fill="#19be6b" p-id="6209"></path></svg>