<?xml version="1.0" standalone="no"?><!DOCTYPE svg PUBLIC "-//W3C//DTD SVG 1.1//EN" "http://www.w3.org/Graphics/SVG/1.1/DTD/svg11.dtd"><svg t="1566978050671" class="icon" viewBox="0 0 1024 1024" version="1.1" xmlns="http://www.w3.org/2000/svg" p-id="5272" width="16" height="16" xmlns:xlink="http://www.w3.org/1999/xlink"><defs><style type="text/css"></style></defs><path d="M128.259664 464.032522c0 31.333636 20.020986 57.966203 47.967478 67.843154l0 291.913443c0 39.747259 32.204469 71.951729 71.951729 71.951729l23.984251 0c39.746236 0 71.951729-32.204469 71.951729-71.951729L344.11485 531.875676c27.946492-9.875928 47.967478-36.509519 47.967478-67.843154L392.082328 128.260176 128.259664 128.260176 128.259664 464.032522zM176.227142 176.227654l23.984251 0 0 263.821641 47.967478 0L248.178871 176.227654l23.984251 0 0 263.821641 47.967478 0L320.130599 176.227654l23.984251 0 0 287.804868c0 13.256932-10.750855 23.984251-23.984251 23.984251l-23.984251 0 0 335.772346c0 13.255908-10.750855 23.984251-23.984251 23.984251l-23.984251 0c-13.232372 0-23.984251-10.727319-23.984251-23.984251L224.193597 488.016773l-23.984251 0c-13.232372 0-23.984251-10.727319-23.984251-23.984251L176.225095 176.227654zM859.76396 368.097566 691.877275 368.097566c-19.885909 0-35.975353 16.101723-35.975353 35.975353s16.090467 35.975353 35.975353 35.975353l167.886685 0c19.86135 0 35.975353-16.101723 35.975353-35.975353S879.62531 368.097566 859.76396 368.097566zM859.76396 535.984251 691.877275 535.984251c-19.885909 0-35.975353 16.114003-35.975353 35.975353s16.090467 35.975353 35.975353 35.975353l167.886685 0c19.86135 0 35.975353-16.114003 35.975353-35.975353S879.62531 535.984251 859.76396 535.984251zM535.982716 128.260176l-23.984251 0c-52.979632 0-95.934956 42.955324-95.934956 95.934956l0 431.707302 47.967478 0 0 167.886685c0 39.747259 32.204469 71.951729 71.951729 71.951729l23.984251 0c39.747259 0 71.951729-32.204469 71.951729-71.951729L631.918695 224.195132C631.917672 171.2155 588.962348 128.260176 535.982716 128.260176zM583.950194 823.789119c0 13.255908-10.750855 23.984251-23.984251 23.984251l-23.984251 0c-13.233396 0-23.984251-10.727319-23.984251-23.984251L511.997442 607.934956 464.03201 607.934956l0-383.739824c0-26.490328 21.47715-47.967478 47.967478-47.967478l23.984251 0c26.490328 0 47.967478 21.47715 47.967478 47.967478L583.951217 823.789119zM691.877275 272.16261l167.886685 0c19.86135 0 35.975353-16.114003 35.975353-35.975353 0-19.87363-16.114003-35.975353-35.975353-35.975353L691.877275 200.211904c-19.885909 0-35.975353 16.101723-35.975353 35.975353C655.901922 256.048607 671.991366 272.16261 691.877275 272.16261z" p-id="5273" fill="#ff9900"></path></svg>