<?xml version="1.0" standalone="no"?><!DOCTYPE svg PUBLIC "-//W3C//DTD SVG 1.1//EN" "http://www.w3.org/Graphics/SVG/1.1/DTD/svg11.dtd"><svg t="1566977195077" class="icon" viewBox="0 0 1024 1024" version="1.1" xmlns="http://www.w3.org/2000/svg" p-id="4166" width="16" height="16" xmlns:xlink="http://www.w3.org/1999/xlink"><defs><style type="text/css"></style></defs><path d="M837.818182 230.4H186.181818c-39.563636 0-69.818182 30.254545-69.818182 69.818182v148.945454c0 39.563636 30.254545 69.818182 69.818182 69.818182h651.636364c39.563636 0 69.818182-30.254545 69.818182-69.818182v-148.945454c0-37.236364-30.254545-69.818182-69.818182-69.818182z m23.272727 218.763636c0 13.963636-9.309091 23.272727-23.272727 23.272728H186.181818c-13.963636 0-23.272727-9.309091-23.272727-23.272728v-148.945454c0-13.963636 9.309091-23.272727 23.272727-23.272727h651.636364c13.963636 0 23.272727 9.309091 23.272727 23.272727v148.945454zM842.472727 598.109091c-13.963636 0-23.272727 9.309091-23.272727 23.272727v242.036364c0 9.309091-6.981818 18.618182-18.618182 18.618182H223.418182c-9.309091 0-18.618182-6.981818-18.618182-18.618182V621.381818c0-13.963636-9.309091-23.272727-23.272727-23.272727s-23.272727 9.309091-23.272728 23.272727v242.036364c0 34.909091 27.927273 65.163636 65.163637 65.163636h577.163636c34.909091 0 65.163636-27.927273 65.163637-65.163636V621.381818c0-13.963636-11.636364-23.272727-23.272728-23.272727z" fill="#2d8cf0" p-id="4167"></path><path d="M637.672727 714.472727c13.963636 0 23.272727-9.309091 23.272728-23.272727s-9.309091-23.272727-23.272728-23.272727H386.327273c-13.963636 0-23.272727 9.309091-23.272728 23.272727s9.309091 23.272727 23.272728 23.272727h251.345454zM512 193.163636c13.963636 0 23.272727-9.309091 23.272727-23.272727V118.690909c0-13.963636-9.309091-23.272727-23.272727-23.272727s-23.272727 9.309091-23.272727 23.272727v51.2c0 13.963636 11.636364 23.272727 23.272727 23.272727zM695.854545 193.163636c13.963636 0 23.272727-9.309091 23.272728-23.272727V118.690909c0-13.963636-9.309091-23.272727-23.272728-23.272727s-23.272727 9.309091-23.272727 23.272727v51.2c0 13.963636 9.309091 23.272727 23.272727 23.272727zM328.145455 193.163636c13.963636 0 23.272727-9.309091 23.272727-23.272727V118.690909c0-13.963636-9.309091-23.272727-23.272727-23.272727s-23.272727 9.309091-23.272728 23.272727v51.2c0 13.963636 9.309091 23.272727 23.272728 23.272727z" fill="#2d8cf0" p-id="4168"></path></svg>