<?xml version="1.0" standalone="no"?><!DOCTYPE svg PUBLIC "-//W3C//DTD SVG 1.1//EN" "http://www.w3.org/Graphics/SVG/1.1/DTD/svg11.dtd"><svg t="1567148469534" class="icon" viewBox="0 0 1105 1024" version="1.1" xmlns="http://www.w3.org/2000/svg" p-id="3131" xmlns:xlink="http://www.w3.org/1999/xlink" width="69.0625" height="64"><defs><style type="text/css"></style></defs><path d="M908.684667 288.585649h-182.458893L743.290275 164.211691a194.929105 194.929105 0 0 0-32.816348-131.265391 98.449043 98.449043 0 0 0-70.226984-32.816347c-50.865339-2.953471-87.291485 44.630233-98.449043 127.327429-1.968981 14.111029-19.033482 112.560073-91.229447 160.800103h-104.027822a32.816348 32.816348 0 0 0-32.816347 32.816348V991.183652a32.816348 32.816348 0 0 0 32.816347 32.816348H928.702639a65.632695 65.632695 0 0 0 63.991878-50.865339l112.888236-487.97909a196.898086 196.898086 0 0 0-196.898086-196.569922z m20.017972 669.781656H379.356979V354.218344H459.428867a32.816348 32.816348 0 0 0 17.064501-4.266125 241.856482 241.856482 0 0 0 68.586167-61.36657 328.163477 328.163477 0 0 0 62.679224-151.283363c5.578779-48.568195 22.315116-71.539638 29.206549-71.539638a32.816348 32.816348 0 0 1 23.955934 11.157558 133.234372 133.234372 0 0 1 17.392664 81.056379l-18.377154 131.265391-6.56327 46.927377c0 6.891433-2.625308 18.048991 3.609798 18.705318a436.457424 436.457424 0 0 0 58.084936 0h193.944614a131.265391 131.265391 0 0 1 131.265391 124.373958zM176.55195 290.226466H65.632695a65.632695 65.632695 0 0 0-65.632695 65.632695v601.19549a65.632695 65.632695 0 0 0 65.632695 65.632695h110.919255a65.632695 65.632695 0 0 0 65.632696-65.632695V355.859161a65.632695 65.632695 0 0 0-65.632696-65.632695z m0 666.828185H65.632695V355.859161h110.919255z" fill="#ffffff" p-id="3132"></path></svg>