<?xml version="1.0" standalone="no"?><!DOCTYPE svg PUBLIC "-//W3C//DTD SVG 1.1//EN" "http://www.w3.org/Graphics/SVG/1.1/DTD/svg11.dtd"><svg t="1567131540123" class="icon" viewBox="0 0 1024 1024" version="1.1" xmlns="http://www.w3.org/2000/svg" p-id="1829" xmlns:xlink="http://www.w3.org/1999/xlink" width="48" height="48"><defs><style type="text/css"></style></defs><path d="M512 64C262.4 64 64 262.4 64 512s198.4 448 448 448 448-198.4 448-448-198.4-448-448-448z m0-64c281.6 0 512 230.4 512 512s-230.4 512-512 512-512-230.4-512-512 230.4-512 512-512z m-32 576c0-19.2 12.8-32 32-32 70.4 0 128-57.6 128-128s-57.6-128-128-128-128 57.6-128 128c0 19.2-12.8 32-32 32S320 435.2 320 416c0-108.8 83.2-192 192-192s192 83.2 192 192c0 96-70.4 172.8-160 192V704c0 19.2-12.8 32-32 32s-32-12.8-32-32V576z m32 288c-19.2 0-32-12.8-32-32s12.8-32 32-32 32 12.8 32 32-12.8 32-32 32z" p-id="1830" fill="#ed3f14"></path></svg>