<?xml version="1.0" standalone="no"?><!DOCTYPE svg PUBLIC "-//W3C//DTD SVG 1.1//EN" "http://www.w3.org/Graphics/SVG/1.1/DTD/svg11.dtd"><svg t="1567131403700" class="icon" viewBox="0 0 1024 1024" version="1.1" xmlns="http://www.w3.org/2000/svg" p-id="6323" xmlns:xlink="http://www.w3.org/1999/xlink" width="48" height="48"><defs><style type="text/css"></style></defs><path d="M448 943v80H209c-66.274 0-120-53.726-120-120V121C89 54.726 142.726 1 209 1h587c66.274 0 120 53.726 120 120v439h-80V121c0-22.091-17.909-40-40-40H209c-22.091 0-40 17.909-40 40v782c0 22.091 17.909 40 40 40h239zM326 291.5c-22.091 0-40-17.909-40-40s17.909-40 40-40h370.743c22.091 0 40 17.909 40 40s-17.909 40-40 40H326z m0 177c-22.091 0-40-17.909-40-40s17.909-40 40-40h370.743c22.091 0 40 17.909 40 40s-17.909 40-40 40H326z m0 177.5c-22.091 0-40-17.909-40-40s17.909-40 40-40h200c22.091 0 40 17.909 40 40s-17.909 40-40 40H326z m407.656 15.905c16.11-15.873 45.019-15.873 61.018 0 6.4 6.393 12.8 19.069 12.8 28.548 0 12.676-3.2 22.266-12.8 28.55l-77.128 76.276h264.635c22.51 0 41.819 19.07 41.819 41.335 0 22.266-19.31 41.335-41.82 41.335H717.547l77.128 76.277c6.4 6.394 12.8 19.07 12.8 28.55 0 12.675-3.2 22.265-12.8 28.548-6.4 9.48-19.31 12.676-28.909 12.676-9.6 0-22.51-3.197-28.91-12.676L589 865.163c-3.2-3.197-6.4-9.48-9.6-12.676-3.2-9.48-3.2-22.266 0-31.745 0-3.197 3.2-9.48 6.4-12.677l147.856-146.16z" p-id="6324" fill="#5cadff"></path></svg>