<?xml version="1.0" standalone="no"?><!DOCTYPE svg PUBLIC "-//W3C//DTD SVG 1.1//EN" "http://www.w3.org/Graphics/SVG/1.1/DTD/svg11.dtd"><svg t="1567131469183" class="icon" viewBox="0 0 1092 1024" version="1.1" xmlns="http://www.w3.org/2000/svg" p-id="7290" xmlns:xlink="http://www.w3.org/1999/xlink" width="51.1875" height="48"><defs><style type="text/css"></style></defs><path d="M259.413333 477.866667h320.853334c20.48 0 34.133333 13.653333 34.133333 34.133333s-13.653333 34.133333-34.133333 34.133333H259.413333c0 6.826667-6.826667 13.653333-6.826666 27.306667L68.266667 955.733333l955.733333-443.733333L68.266667 68.266667l184.32 382.293333c6.826667 13.653333 6.826667 20.48 6.826666 27.306667z m791.893334 95.573333l-955.733334 443.733333c-34.133333 13.653333-75.093333 0-88.746666-34.133333-6.826667-20.48-6.826667-40.96 0-61.44l184.32-382.293333c6.826667-20.48 6.826667-40.96 0-61.44L6.826667 95.573333C-6.826667 61.44 6.826667 20.48 40.96 6.826667c13.653333-6.826667 40.96-6.826667 54.613333 0l955.733334 443.733333c34.133333 13.653333 47.786667 54.613333 34.133333 88.746667-6.826667 13.653333-20.48 27.306667-34.133333 34.133333z" p-id="7291" fill="#5cadff"></path></svg>