<?xml version="1.0" standalone="no"?><!DOCTYPE svg PUBLIC "-//W3C//DTD SVG 1.1//EN" "http://www.w3.org/Graphics/SVG/1.1/DTD/svg11.dtd"><svg t="1567145780762" class="icon" viewBox="0 0 1024 1024" version="1.1" xmlns="http://www.w3.org/2000/svg" p-id="2321" xmlns:xlink="http://www.w3.org/1999/xlink" width="64" height="64"><defs><style type="text/css"></style></defs><path d="M832 640c-64 0-121.6 32-153.6 76.8 0 0 0-6.4 6.4-6.4L371.2 544v6.4c6.4-25.6 12.8-44.8 12.8-70.4s-6.4-44.8-12.8-64c0 6.4 6.4 12.8 6.4 19.2l294.4-134.4c-6.4-6.4-12.8-19.2-19.2-32C684.8 339.2 755.2 384 832 384c108.8 0 192-83.2 192-192s-83.2-192-192-192-192 83.2-192 192c0 25.6 6.4 44.8 12.8 64 0-6.4-6.4-12.8-6.4-19.2L352 371.2c6.4 12.8 12.8 19.2 12.8 32C339.2 332.8 268.8 288 192 288c-108.8 0-192 83.2-192 192s83.2 192 192 192c64 0 121.6-32 153.6-76.8 0 0 0 6.4-6.4 6.4l307.2 166.4v-6.4c0 25.6-6.4 44.8-6.4 70.4 0 108.8 83.2 192 192 192s192-83.2 192-192-83.2-192-192-192z m0-576c70.4 0 128 57.6 128 128s-57.6 128-128 128-128-57.6-128-128 57.6-128 128-128zM192 608c-70.4 0-128-57.6-128-128s57.6-128 128-128 128 57.6 128 128-57.6 128-128 128z m172.8-44.8c0 6.4-6.4 12.8-12.8 19.2 6.4-6.4 12.8-12.8 12.8-19.2z m307.2 166.4c-6.4 6.4-6.4 12.8-12.8 19.2 0-6.4 6.4-12.8 12.8-19.2zM832 960c-70.4 0-128-57.6-128-128s57.6-128 128-128 128 57.6 128 128-57.6 128-128 128z" p-id="2322" fill="#ffffff"></path></svg>